<svg width="185" height="183" viewBox="0 0 185 183" fill="none" xmlns="http://www.w3.org/2000/svg">
<path d="M152.262 38.082C151.17 38.7236 149.764 38.3583 149.122 37.2659C148.48 36.1736 148.846 34.7679 149.938 34.1262C151.031 33.4845 152.436 33.8499 153.078 34.9422C153.72 36.0346 153.354 37.4403 152.262 38.082Z" fill="#979797"/>
<path d="M148.065 150.953C146.973 151.594 145.567 151.229 144.925 150.137C144.284 149.044 144.649 147.638 145.741 146.997C146.834 146.355 148.24 146.72 148.881 147.813C149.523 148.905 149.158 150.311 148.065 150.953Z" fill="#979797"/>
<path d="M33.4511 143.789C32.3587 144.43 30.953 144.065 30.3114 142.972C29.6697 141.88 30.035 140.474 31.1274 139.833C32.2198 139.191 33.6255 139.556 34.2671 140.649C34.9088 141.741 34.5435 143.147 33.4511 143.789Z" fill="#979797"/>
<path d="M122.962 148.262C92.3287 166.256 52.9082 156.011 34.9137 125.378C16.9192 94.7444 27.1649 55.324 57.798 37.3295C88.4311 19.335 127.852 29.5806 145.846 60.2137C163.841 90.8469 153.595 130.267 122.962 148.262Z" fill="#AEB99C"/>
<path d="M41.3692 32.7236C40.2769 33.3652 38.8712 32.9999 38.2295 31.9075C37.5878 30.8152 37.9532 29.4095 39.0455 28.7678C40.1379 28.1261 41.5436 28.4915 42.1853 29.5838C42.8269 30.6762 42.4616 32.0819 41.3692 32.7236Z" fill="#979797"/>
<path d="M130.404 160.569L129.718 168.875L127.755 169.833L123.107 160.306L125.07 159.349L128.211 165.787L128.897 157.481L130.86 156.523L135.509 166.05L133.546 167.007L130.404 160.569Z" fill="#979797"/>
<path d="M112.339 165.814L111.847 164.183L119.158 161.977L119.651 163.608L112.339 165.814ZM119.03 163.795L117.787 159.676L119.753 159.083L121.107 163.168L119.03 163.795ZM110.834 166.269L109.77 162.088L111.686 161.509L112.932 165.635L110.834 166.269ZM116.059 173.984L115.565 172.347L120.451 170.872L120.945 172.51L116.059 173.984ZM114.568 174.435L111.505 164.286L113.589 163.657L116.652 173.806L114.568 174.435ZM121.203 172.432L119.112 173.063L118.137 168.848C117.972 168.152 117.865 167.526 117.813 166.969C117.758 166.417 117.746 165.922 117.775 165.482C117.8 165.043 117.856 164.649 117.943 164.298C118.031 163.952 118.14 163.641 118.269 163.363C118.399 163.091 118.539 162.841 118.689 162.613C118.84 162.39 118.989 162.18 119.138 161.983L120.336 161.621L120.829 163.252L120.362 163.393C120.26 163.546 120.165 163.742 120.075 163.982C119.981 164.223 119.916 164.529 119.881 164.9C119.842 165.276 119.849 165.736 119.901 166.278C119.948 166.821 120.057 167.467 120.228 168.217L121.203 172.432Z" fill="#979797"/>
<path d="M101.667 167.772L101.413 166.087L106.993 165.246L107.247 166.93L101.667 167.772ZM107.868 175.834L106.287 165.352L108.447 165.027L110.027 175.508L107.868 175.834ZM103.077 172.19L102.83 170.549L107.682 169.817L107.929 171.459L103.077 172.19ZM103.001 176.568L102.746 174.876L108.318 174.036L108.573 175.728L103.001 176.568Z" fill="#979797"/>
<path d="M94.5404 175.259L97.3804 166.458L99.7028 166.446L95.8161 177.066L94.3382 177.073L94.5404 175.259ZM92.1022 166.483L95.0355 175.257L95.2773 177.068L93.7849 177.076L89.7725 166.495L92.1022 166.483ZM92.2525 170.429L92.2441 168.718L97.8427 168.69L97.8511 170.401L92.2525 170.429Z" fill="#979797"/>
<path d="M78.1089 175.754L78.375 174.064L83.5819 174.884L83.3158 176.574L78.1089 175.754ZM76.5699 175.512L78.218 165.041L80.3756 165.38L78.7274 175.851L76.5699 175.512ZM83.5891 176.617L81.4388 176.278L82.5323 171.063C82.6945 170.283 82.8763 169.611 83.0779 169.048C83.2747 168.485 83.4963 168.014 83.7426 167.635C83.9882 167.261 84.2648 166.97 84.5726 166.763C84.8748 166.56 85.2147 166.429 85.5924 166.371C85.9694 166.317 86.388 166.326 86.8483 166.399L87.3805 166.483L87.1156 168.166L86.8389 168.144C86.6002 168.131 86.3842 168.161 86.191 168.234C85.9977 168.306 85.8229 168.434 85.6666 168.616C85.5054 168.797 85.3596 169.036 85.229 169.335C85.0929 169.638 84.965 170.013 84.8454 170.461C84.7209 170.909 84.6012 171.435 84.4862 172.041L83.5891 176.617Z" fill="#979797"/>
<path d="M71.4747 170.345L69.1164 169.593C68.3211 169.339 67.6788 168.989 67.1895 168.543C66.7002 168.096 66.3766 167.586 66.2187 167.01C66.0608 166.435 66.0829 165.831 66.285 165.198C66.4384 164.717 66.6664 164.305 66.9689 163.964C67.27 163.627 67.6358 163.367 68.0663 163.183C68.4907 163.002 68.9638 162.909 69.4856 162.902C70.0074 162.895 70.5665 162.987 71.163 163.177L74.8808 164.363L71.6593 174.462L69.5715 173.796L72.2753 165.32L70.6453 164.8C70.2476 164.673 69.8957 164.643 69.5896 164.708C69.2834 164.773 69.0265 164.908 68.8189 165.112C68.6051 165.319 68.4503 165.572 68.3544 165.873C68.263 166.16 68.2474 166.44 68.3078 166.714C68.362 166.991 68.4972 167.238 68.7134 167.455C68.9296 167.671 69.2365 167.843 69.6342 167.97L71.9924 168.722L71.4747 170.345Z" fill="#979797"/>
<path d="M55.4324 163.509L56.1862 161.981L61.1482 164.429L60.3944 165.957L55.4324 163.509ZM57.9031 169.542L62.5934 160.036L64.5521 161.002L59.8618 170.508L57.9031 169.542ZM52.125 166.691L56.8153 157.185L58.7674 158.148L54.0771 167.654L52.125 166.691Z" fill="#979797"/>
<path d="M43.5483 155.067L43.839 154.658C44.3053 154 44.8128 153.474 45.3617 153.078C45.9106 152.682 46.478 152.415 47.0638 152.277C47.6468 152.143 48.2327 152.139 48.8216 152.266C49.4065 152.389 49.9721 152.645 50.5183 153.032C51.0606 153.417 51.4885 153.867 51.8021 154.381C52.1118 154.892 52.3016 155.446 52.3718 156.044C52.4391 156.645 52.3784 157.271 52.1897 157.923C51.997 158.572 51.6676 159.225 51.2013 159.882L50.9106 160.292C50.4415 160.953 49.9339 161.479 49.3879 161.871C48.839 162.268 48.2716 162.534 47.6858 162.672C47.0961 162.807 46.5087 162.813 45.9238 162.69C45.3349 162.563 44.7694 162.308 44.2271 161.923C43.6808 161.535 43.2529 161.086 42.9432 160.574C42.6296 160.06 42.4412 159.504 42.3778 158.906C42.3105 158.304 42.3732 157.679 42.5658 157.03C42.7517 156.383 43.0792 155.728 43.5483 155.067ZM45.638 155.934L45.3389 156.356C45.013 156.815 44.7681 157.248 44.604 157.655C44.44 158.063 44.3548 158.443 44.3486 158.795C44.3423 159.148 44.4138 159.467 44.5631 159.751C44.7096 160.04 44.9332 160.29 45.2341 160.504C45.5349 160.717 45.8456 160.846 46.1662 160.889C46.4801 160.933 46.8024 160.894 47.1332 160.771C47.4601 160.646 47.7886 160.439 48.119 160.15C48.4493 159.86 48.7773 159.486 49.1031 159.027L49.4023 158.605C49.7253 158.15 49.9703 157.717 50.1371 157.306C50.3012 156.898 50.3877 156.516 50.3968 156.16C50.403 155.807 50.3329 155.487 50.1865 155.198C50.04 154.91 49.8164 154.659 49.5155 154.445C49.2147 154.232 48.904 154.104 48.5834 154.061C48.2628 154.018 47.939 154.059 47.6122 154.184C47.2825 154.313 46.9525 154.522 46.6222 154.811C46.2891 155.105 45.961 155.479 45.638 155.934Z" fill="#979797"/>
<path d="M21.9762 126.7L13.6916 125.79L12.787 123.802L22.4354 119.412L23.34 121.4L16.8194 124.367L25.1039 125.277L26.0085 127.264L16.3601 131.655L15.4556 129.667L21.9762 126.7Z" fill="#979797"/>
<path d="M17.2633 108.584L18.9068 108.136L20.9179 115.503L19.2744 115.952L17.2633 108.584ZM19.1038 115.327L23.2547 114.194L23.7953 116.174L19.6751 117.42L19.1038 115.327ZM16.8492 107.067L21.0569 106.115L21.5841 108.046L17.4263 109.181L16.8492 107.067ZM8.99701 112.086L10.6475 111.635L11.9915 116.559L10.341 117.009L8.99701 112.086ZM8.58673 110.583L18.8128 107.791L19.3861 109.891L9.15997 112.683L8.58673 110.583ZM10.4119 117.269L9.83674 115.162L14.0764 114.299C14.7762 114.153 15.4054 114.062 15.9638 114.025C16.5164 113.985 17.0121 113.986 17.451 114.027C17.8886 114.063 18.2815 114.13 18.6298 114.226C18.9733 114.323 19.282 114.44 19.5557 114.577C19.8248 114.715 20.0711 114.861 20.2946 115.017C20.5134 115.173 20.7193 115.328 20.9122 115.482L21.2419 116.69L19.5984 117.139L19.47 116.668C19.3206 116.563 19.1271 116.462 18.8895 116.366C18.6507 116.265 18.3465 116.192 17.977 116.147C17.6015 116.099 17.1422 116.094 16.599 116.131C16.0546 116.164 15.4054 116.256 14.6516 116.406L10.4119 117.269Z" fill="#979797"/>
<path d="M15.5938 97.7437L17.2852 97.5401L17.9594 103.142L16.268 103.346L15.5938 97.7437ZM7.34984 103.7L17.8741 102.434L18.1351 104.602L7.61082 105.869L7.34984 103.7ZM11.1351 99.0209L12.7831 98.8226L13.3695 103.694L11.7214 103.893L11.1351 99.0209ZM6.76176 98.814L8.4604 98.6095L9.13373 104.204L7.43509 104.409L6.76176 98.814Z" fill="#979797"/>
<path d="M8.31392 90.4118L17.028 93.5095L16.971 95.8312L6.47058 91.6337L6.50683 90.1562L8.31392 90.4118ZM17.1575 88.2328L8.30178 90.9067L6.48379 91.0951L6.5204 89.6031L17.2146 85.9037L17.1575 88.2328ZM13.2095 88.267L14.9198 88.309L14.7825 93.9059L13.0721 93.8639L13.2095 88.267Z" fill="#979797"/>
<path d="M8.25536 74.1332L9.93812 74.4422L8.98622 79.6265L7.30346 79.3176L8.25536 74.1332ZM8.53672 72.6008L18.9627 74.5151L18.5683 76.6634L8.14229 74.749L8.53672 72.6008ZM7.2535 79.5897L7.64662 77.4486L12.8324 78.6747C13.6083 78.8566 14.275 79.0555 14.8325 79.2714C15.3908 79.4824 15.8562 79.7159 16.2287 79.9718C16.5964 80.2269 16.8798 80.5109 17.079 80.8238C17.2742 81.131 17.3963 81.4742 17.4451 81.8533C17.4891 82.2315 17.4691 82.6497 17.385 83.108L17.2877 83.6379L15.6121 83.3302L15.6405 83.0542C15.6596 82.8159 15.6353 82.5992 15.5674 82.4042C15.4996 82.2091 15.3769 82.0311 15.1991 81.8702C15.0223 81.7045 14.7862 81.5526 14.4908 81.4145C14.1915 81.2707 13.8195 81.1333 13.3747 81.0023C12.9309 80.8665 12.4076 80.7334 11.8048 80.603L7.2535 79.5897Z" fill="#979797"/>
<path d="M13.8363 67.6722L14.6484 65.3339C14.9222 64.5453 15.2886 63.9121 15.7474 63.4343C16.2061 62.9565 16.725 62.646 17.3039 62.5028C17.8829 62.3596 18.4864 62.3971 19.1146 62.6153C19.5914 62.7808 19.9967 63.0192 20.3305 63.3304C20.6597 63.64 20.9107 64.0123 21.0833 64.4473C21.2529 64.8761 21.3345 65.3514 21.3279 65.8732C21.3214 66.395 21.2154 66.9517 21.01 67.5431L19.7299 71.2295L9.71625 67.752L10.4352 65.6818L18.8394 68.6005L19.4007 66.9843C19.5376 66.59 19.5773 66.2389 19.5198 65.9312C19.4622 65.6235 19.3342 65.3633 19.1358 65.1505C18.9344 64.9316 18.6847 64.7703 18.3867 64.6668C18.1024 64.5681 17.8226 64.5454 17.5471 64.5988C17.2687 64.646 17.0184 64.7748 16.7963 64.9854C16.5742 65.196 16.3946 65.4985 16.2577 65.8928L15.4456 68.2311L13.8363 67.6722Z" fill="#979797"/>
<path d="M21.0614 51.8693L22.5694 52.6621L19.9945 57.5596L18.4866 56.7668L21.0614 51.8693ZM14.9668 54.1842L24.3494 59.1171L23.333 61.0503L13.9504 56.1174L14.9668 54.1842ZM17.9651 48.4812L27.3477 53.4141L26.3347 55.3408L16.9521 50.408L17.9651 48.4812Z" fill="#979797"/>
<path d="M29.8813 40.1326L30.2821 40.4355C30.925 40.9211 31.4362 41.4442 31.8157 42.0047C32.1953 42.5651 32.4451 43.1402 32.5654 43.7298C32.6818 44.3166 32.6681 44.9024 32.5243 45.4872C32.3834 46.0682 32.1111 46.6259 31.7074 47.1603C31.3066 47.6908 30.8445 48.1052 30.3212 48.4033C29.8008 48.6976 29.2411 48.8708 28.642 48.9231C28.039 48.9724 27.4146 48.893 26.7688 48.685C26.126 48.4731 25.4831 48.1243 24.8402 47.6386L24.4394 47.3358C23.7927 46.8472 23.2815 46.3241 22.9058 45.7666C22.5263 45.2061 22.2764 44.631 22.1562 44.0414C22.0389 43.4478 22.0506 42.8606 22.1915 42.2796C22.3353 41.6948 22.6076 41.1371 23.0084 40.6065C23.4121 40.0721 23.8742 39.6578 24.3946 39.3635C24.9179 39.0654 25.4795 38.8936 26.0796 38.8482C26.6826 38.7988 27.3055 38.8801 27.9484 39.092C28.5903 39.2972 29.2346 39.644 29.8813 40.1326ZM28.9524 42.1956L28.54 41.884C28.0907 41.5446 27.665 41.2868 27.2628 41.1107C26.8605 40.9346 26.4833 40.8381 26.1309 40.8213C25.7786 40.8046 25.4581 40.8665 25.1693 41.0073C24.8766 41.145 24.6191 41.3611 24.3967 41.6554C24.1744 41.9497 24.0369 42.2565 23.9843 42.5757C23.9308 42.8881 23.9603 43.2114 24.0727 43.5457C24.188 43.8762 24.3853 44.2108 24.6647 44.5496C24.944 44.8884 25.3083 45.2275 25.7576 45.5669L26.17 45.8785C26.6154 46.2149 27.0411 46.4727 27.4472 46.6518C27.8494 46.8279 28.2286 46.9258 28.5848 46.9455C28.9371 46.9623 29.2596 46.9018 29.5523 46.764C29.845 46.6262 30.1025 46.4101 30.3248 46.1158C30.5472 45.8215 30.6847 45.5147 30.7372 45.1955C30.7898 44.8764 30.7584 44.5515 30.6431 44.2211C30.5239 43.8877 30.3246 43.5516 30.0453 43.2128C29.762 42.8711 29.3977 42.532 28.9524 42.1956Z" fill="#979797"/>
<path d="M54.5346 23.0376L55.0604 14.7199L57.0045 13.7245L61.8358 23.1597L59.8917 24.1552L56.6266 17.7786L56.1008 26.0963L54.1567 27.0918L49.3254 17.6565L51.2695 16.6611L54.5346 23.0376Z" fill="#979797"/>
<path d="M72.5329 17.4293L73.056 19.0506L65.7879 21.3957L65.2647 19.7744L72.5329 17.4293ZM65.8814 19.5754L67.2026 23.6703L65.2487 24.3007L63.8166 20.2416L65.8814 19.5754ZM74.0295 16.9464L75.1728 21.1063L73.2674 21.7211L71.944 17.6193L74.0295 16.9464ZM68.6578 9.33133L69.1832 10.9596L64.3262 12.5267L63.8008 10.8985L68.6578 9.33133ZM70.1405 8.85291L73.3955 18.9411L71.3239 19.6095L68.0689 9.52135L70.1405 8.85291ZM63.5445 10.9812L65.6231 10.3105L66.6785 14.5064C66.856 15.1988 66.9759 15.8231 67.0381 16.3794C67.1034 16.9295 67.1254 17.4247 67.1043 17.865C67.0878 18.3039 67.0395 18.6994 66.9593 19.0517C66.8777 19.3993 66.7749 19.713 66.651 19.9927C66.5255 20.2677 66.3903 20.5205 66.2453 20.7508C66.0989 20.9766 65.9533 21.1893 65.8086 21.389L64.6169 21.7735L64.0938 20.1522L64.558 20.0024C64.6562 19.8483 64.7479 19.6505 64.8331 19.4088C64.9229 19.1656 64.9819 18.8584 65.0101 18.4872C65.0413 18.1099 65.0258 17.6508 64.9635 17.11C64.9058 16.5676 64.7846 15.9233 64.5999 15.1771L63.5445 10.9812Z" fill="#979797"/>
<path d="M83.0345 15.2878L83.32 16.9673L77.7575 17.913L77.472 16.2335L83.0345 15.2878ZM76.6843 7.3431L78.4609 17.7934L76.3077 18.1595L74.531 7.70916L76.6843 7.3431ZM81.5421 10.8964L81.8203 12.5329L76.9827 13.3553L76.7045 11.7189L81.5421 10.8964ZM81.5362 6.51822L81.823 8.20491L76.2676 9.14937L75.9809 7.46268L81.5362 6.51822Z" fill="#979797"/>
<path d="M90.3715 7.63088L87.6616 16.4732L85.3396 16.5189L89.0694 5.84329L90.547 5.81426L90.3715 7.63088ZM92.9389 16.3696L89.8765 7.6406L89.608 5.83271L91.1002 5.8034L95.2682 16.3238L92.9389 16.3696ZM92.7304 12.4269L92.764 14.1375L87.1664 14.2475L87.1328 12.5369L92.7304 12.4269Z" fill="#979797"/>
<path d="M106.475 6.81951L106.239 8.51416L101.018 7.78958L101.254 6.09493L106.475 6.81951ZM108.018 7.03368L106.561 17.5333L104.397 17.2331L105.854 6.73344L108.018 7.03368ZM100.98 6.05689L103.136 6.35614L102.137 11.5906C101.99 12.3736 101.82 13.0484 101.629 13.6147C101.442 14.1818 101.229 14.6569 100.99 15.0402C100.751 15.4187 100.48 15.7142 100.176 15.9269C99.8774 16.1354 99.5399 16.2723 99.1633 16.3376C98.7874 16.3981 98.3686 16.3964 97.9071 16.3323L97.3735 16.2583L97.6077 14.5708L97.8847 14.5872C98.1236 14.5959 98.339 14.5621 98.5309 14.4858C98.7228 14.4095 98.8952 14.2791 99.0483 14.0946C99.2061 13.9106 99.3475 13.6681 99.4726 13.367C99.6032 13.0617 99.7242 12.684 99.8357 12.234C99.952 11.7846 100.062 11.256 100.166 10.6481L100.98 6.05689Z" fill="#979797"/>
<path d="M113.343 12.1209L115.715 12.8302C116.515 13.0694 117.163 13.4077 117.66 13.8453C118.158 14.2828 118.491 14.7876 118.659 15.3597C118.827 15.9319 118.816 16.5365 118.626 17.1735C118.481 17.6571 118.26 18.0725 117.964 18.4195C117.669 18.7619 117.308 19.0288 116.881 19.2203C116.46 19.4084 115.989 19.5107 115.467 19.5269C114.946 19.5431 114.385 19.4616 113.785 19.2822L110.046 18.164L113.084 8.00822L115.183 8.63615L112.634 17.1597L114.273 17.65C114.673 17.7696 115.026 17.7939 115.33 17.723C115.635 17.6521 115.89 17.5129 116.094 17.3054C116.304 17.0946 116.454 16.8381 116.544 16.5358C116.63 16.2475 116.641 15.9669 116.576 15.6941C116.516 15.418 116.377 15.1736 116.157 14.9609C115.936 14.7481 115.627 14.582 115.227 14.4623L112.855 13.7531L113.343 12.1209Z" fill="#979797"/>
<path d="M129.258 18.5422L128.532 20.0836L123.526 17.7266L124.252 16.1853L129.258 18.5422ZM126.677 12.5553L122.162 22.1457L120.186 21.2154L124.701 11.6249L126.677 12.5553ZM132.507 15.2999L127.991 24.8903L126.022 23.9631L130.537 14.3726L132.507 15.2999Z" fill="#979797"/>
<path d="M141.164 26.6152L140.881 27.0302C140.427 27.6958 139.93 28.2317 139.388 28.638C138.847 29.0442 138.285 29.3216 137.701 29.4703C137.121 29.615 136.535 29.6296 135.944 29.5144C135.357 29.4018 134.787 29.1569 134.233 28.7795C133.684 28.4048 133.248 27.9633 132.925 27.4551C132.606 26.9496 132.406 26.3989 132.324 25.803C132.246 25.2031 132.295 24.5756 132.471 23.9205C132.652 23.2682 132.969 22.6092 133.423 21.9436L133.706 21.5285C134.163 20.8589 134.661 20.323 135.199 19.9207C135.741 19.5145 136.303 19.2371 136.886 19.0884C137.473 18.9425 138.06 18.9258 138.648 19.0383C139.239 19.1536 139.809 19.3986 140.358 19.7732C140.912 20.1506 141.348 20.5921 141.667 21.0976C141.99 21.6058 142.189 22.1585 142.263 22.7557C142.342 23.3556 142.291 23.9817 142.11 24.6341C141.936 25.2852 141.621 25.9455 141.164 26.6152ZM139.059 25.7872L139.35 25.3602C139.667 24.895 139.904 24.4573 140.061 24.047C140.217 23.6367 140.295 23.2552 140.295 22.9025C140.295 22.5498 140.217 22.2326 140.063 21.951C139.911 21.6653 139.683 21.4186 139.378 21.2108C139.073 21.0029 138.76 20.8805 138.439 20.8434C138.124 20.8051 137.802 20.8502 137.474 20.9786C137.15 21.1098 136.825 21.3232 136.5 21.6186C136.175 21.914 135.854 22.2943 135.537 22.7594L135.246 23.1865C134.931 23.6476 134.694 24.0853 134.535 24.4996C134.379 24.9099 134.299 25.2934 134.297 25.6502C134.297 26.0029 134.373 26.3221 134.525 26.6077C134.677 26.8934 134.905 27.1401 135.21 27.348C135.515 27.5558 135.828 27.6782 136.149 27.7153C136.47 27.7523 136.793 27.7053 137.118 27.5741C137.445 27.4388 137.771 27.2235 138.096 26.9281C138.423 26.6286 138.744 26.2484 139.059 25.7872Z" fill="#979797"/>
<path d="M159.803 49.8912L168.136 50.0637L169.213 51.9638L159.991 57.1911L158.914 55.291L165.146 51.7583L156.814 51.5858L155.737 49.6857L164.959 44.4584L166.036 46.3585L159.803 49.8912Z" fill="#979797"/>
<path d="M166.101 67.3907L164.506 67.9876L161.83 60.8345L163.426 60.2376L166.101 67.3907ZM163.653 60.8445L159.623 62.352L158.903 60.429L162.893 58.8125L163.653 60.8445ZM166.652 68.8636L162.549 70.1963L161.848 68.3211L165.885 66.8111L166.652 68.8636ZM174.013 63.1487L172.411 63.7481L170.623 58.968L172.225 58.3686L174.013 63.1487ZM174.559 64.6079L164.631 68.3217L163.868 66.2828L173.797 62.569L174.559 64.6079ZM172.131 58.1163L172.896 60.162L168.753 61.4086C168.069 61.6176 167.451 61.766 166.898 61.8535C166.352 61.944 165.858 61.9887 165.417 61.9878C164.978 61.9914 164.581 61.9613 164.225 61.8974C163.874 61.8317 163.556 61.7434 163.271 61.6324C162.991 61.5197 162.732 61.3962 162.495 61.262C162.263 61.126 162.044 60.9903 161.838 60.855L161.399 59.6821L162.995 59.0852L163.166 59.5421C163.324 59.6331 163.526 59.7157 163.771 59.7897C164.018 59.8683 164.328 59.9132 164.7 59.9243C165.078 59.9382 165.536 59.9017 166.074 59.8146C166.613 59.7321 167.251 59.5816 167.988 59.3629L172.131 58.1163Z" fill="#979797"/>
<path d="M168.738 77.8097L167.073 78.1707L165.878 72.6566L167.542 72.2956L168.738 77.8097ZM176.388 71.1075L166.029 73.3539L165.566 71.2193L175.925 68.973L176.388 71.1075ZM173.058 76.1207L171.435 76.4725L170.396 71.6769L172.018 71.3251L173.058 76.1207ZM177.431 75.9173L175.759 76.2799L174.565 70.7728L176.237 70.4103L177.431 75.9173Z" fill="#979797"/>
<path d="M176.707 84.4527L167.745 82.1708L167.588 79.8537L178.43 83.0661L178.53 84.5406L176.707 84.4527ZM168.102 87.437L176.674 83.9587L178.467 83.6036L178.568 85.0927L168.26 89.7614L168.102 87.437ZM172.03 87.0393L170.323 87.155L169.944 81.5692L171.651 81.4535L172.03 87.0393Z" fill="#979797"/>
<path d="M178.257 101.09L176.554 100.929L177.049 95.6815L178.752 95.8423L178.257 101.09ZM178.11 102.641L167.557 101.645L167.762 99.4704L178.316 100.467L178.11 102.641ZM178.778 95.5668L178.574 97.734L173.301 96.9657C172.512 96.8522 171.83 96.7123 171.256 96.546C170.681 96.3845 170.197 96.1925 169.804 95.9701C169.415 95.7482 169.108 95.4901 168.883 95.1958C168.661 94.9067 168.51 94.5755 168.428 94.2022C168.351 93.8293 168.334 93.4109 168.378 92.947L168.429 92.4106L170.125 92.5707L170.121 92.8482C170.122 93.0873 170.166 93.301 170.25 93.4894C170.335 93.6777 170.473 93.8443 170.664 93.9891C170.854 94.1387 171.103 94.2694 171.409 94.3812C171.72 94.4983 172.103 94.6027 172.557 94.6943C173.011 94.7908 173.544 94.8777 174.156 94.955L178.778 95.5668Z" fill="#979797"/>
<path d="M173.356 107.716L172.759 110.118C172.558 110.928 172.25 111.592 171.837 112.109C171.423 112.627 170.935 112.983 170.371 113.178C169.808 113.373 169.203 113.391 168.558 113.231C168.068 113.109 167.643 112.908 167.282 112.629C166.926 112.35 166.643 112.002 166.431 111.585C166.223 111.173 166.099 110.707 166.058 110.187C166.017 109.667 166.072 109.103 166.223 108.495L167.164 104.708L177.451 107.262L176.923 109.389L168.289 107.245L167.877 108.906C167.776 109.311 167.768 109.664 167.854 109.965C167.939 110.266 168.09 110.514 168.307 110.708C168.527 110.908 168.791 111.045 169.097 111.122C169.389 111.194 169.669 111.191 169.939 111.113C170.212 111.041 170.449 110.89 170.652 110.66C170.854 110.43 171.005 110.113 171.106 109.707L171.702 107.305L173.356 107.716Z" fill="#979797"/>
<path d="M167.507 124.398L165.936 123.741L168.071 118.636L169.642 119.293L167.507 124.398ZM173.375 121.557L163.596 117.467L164.439 115.452L174.218 119.542L173.375 121.557ZM170.889 127.501L161.11 123.411L161.95 121.402L171.729 125.493L170.889 127.501Z" fill="#979797"/>
<path d="M159.94 136.661L159.513 136.397C158.828 135.973 158.27 135.499 157.84 134.976C157.41 134.454 157.108 133.904 156.934 133.328C156.763 132.755 156.723 132.17 156.812 131.575C156.898 130.983 157.117 130.403 157.47 129.833C157.82 129.268 158.241 128.812 158.735 128.467C159.225 128.125 159.767 127.901 160.358 127.793C160.954 127.688 161.583 127.709 162.245 127.856C162.905 128.008 163.578 128.295 164.263 128.719L164.69 128.984C165.379 129.41 165.937 129.884 166.363 130.404C166.792 130.927 167.095 131.476 167.269 132.052C167.441 132.632 167.484 133.218 167.397 133.809C167.309 134.405 167.089 134.986 166.739 135.551C166.387 136.121 165.965 136.576 165.475 136.917C164.981 137.263 164.438 137.486 163.845 137.587C163.249 137.692 162.621 137.669 161.961 137.518C161.303 137.373 160.629 137.087 159.94 136.661ZM160.674 134.521L161.113 134.793C161.592 135.089 162.04 135.306 162.457 135.444C162.873 135.582 163.258 135.643 163.61 135.627C163.963 135.611 164.276 135.52 164.551 135.353C164.829 135.188 165.066 134.949 165.26 134.636C165.454 134.322 165.562 134.004 165.585 133.681C165.609 133.365 165.55 133.046 165.407 132.723C165.261 132.405 165.034 132.09 164.724 131.779C164.415 131.467 164.02 131.164 163.542 130.867L163.102 130.595C162.627 130.302 162.18 130.085 161.759 129.944C161.342 129.806 160.955 129.744 160.599 129.757C160.246 129.773 159.931 129.863 159.652 130.028C159.374 130.192 159.137 130.431 158.943 130.745C158.749 131.058 158.641 131.377 158.618 131.699C158.595 132.022 158.657 132.342 158.802 132.661C158.952 132.982 159.181 133.298 159.491 133.609C159.805 133.923 160.199 134.227 160.674 134.521Z" fill="#979797"/>
</svg>
